<?xml version="1.0" encoding="UTF-8" standalone="no"?>
<!DOCTYPE svg PUBLIC "-//W3C//DTD SVG 1.1//EN"
 "http://www.w3.org/Graphics/SVG/1.1/DTD/svg11.dtd">
<!-- Generated by graphviz version 2.50.0 (20211209.0339)
 -->
<!-- Title: snakemake_dag Pages: 1 -->
<svg width="147pt" height="260pt"
 viewBox="0.00 0.00 146.50 260.00" xmlns="http://www.w3.org/2000/svg" xmlns:xlink="http://www.w3.org/1999/xlink">
<g id="graph0" class="graph" transform="scale(1 1) rotate(0) translate(4 256)">
<title>snakemake_dag</title>
<polygon fill="white" stroke="transparent" points="-4,4 -4,-256 142.5,-256 142.5,4 -4,4"/>
<!-- 0 -->
<g id="node1" class="node">
<title>0</title>
<path fill="none" stroke="#56d87b" stroke-width="2" d="M81,-36C81,-36 51,-36 51,-36 45,-36 39,-30 39,-24 39,-24 39,-12 39,-12 39,-6 45,0 51,0 51,0 81,0 81,0 87,0 93,-6 93,-12 93,-12 93,-24 93,-24 93,-30 87,-36 81,-36"/>
<text text-anchor="middle" x="66" y="-15.5" font-family="sans" font-size="10.00">all</text>
</g>
<!-- 1 -->
<g id="node2" class="node">
<title>1</title>
<path fill="none" stroke="#d8a456" stroke-width="2" d="M42,-108C42,-108 12,-108 12,-108 6,-108 0,-102 0,-96 0,-96 0,-84 0,-84 0,-78 6,-72 12,-72 12,-72 42,-72 42,-72 48,-72 54,-78 54,-84 54,-84 54,-96 54,-96 54,-102 48,-108 42,-108"/>
<text text-anchor="middle" x="27" y="-87.5" font-family="sans" font-size="10.00">multiqc</text>
</g>
<!-- 1&#45;&gt;0 -->
<g id="edge2" class="edge">
<title>1&#45;&gt;0</title>
<path fill="none" stroke="grey" stroke-width="2" d="M36.64,-71.7C41.13,-63.64 46.56,-53.89 51.52,-44.98"/>
<polygon fill="grey" stroke="grey" stroke-width="2" points="54.66,-46.54 56.47,-36.1 48.55,-43.14 54.66,-46.54"/>
</g>
<!-- 2 -->
<g id="node3" class="node">
<title>2</title>
<path fill="none" stroke="#c6d856" stroke-width="2" d="M42,-180C42,-180 12,-180 12,-180 6,-180 0,-174 0,-168 0,-168 0,-156 0,-156 0,-150 6,-144 12,-144 12,-144 42,-144 42,-144 48,-144 54,-150 54,-156 54,-156 54,-168 54,-168 54,-174 48,-180 42,-180"/>
<text text-anchor="middle" x="27" y="-159.5" font-family="sans" font-size="10.00">fastqc</text>
</g>
<!-- 2&#45;&gt;1 -->
<g id="edge3" class="edge">
<title>2&#45;&gt;1</title>
<path fill="none" stroke="grey" stroke-width="2" d="M27,-143.7C27,-135.98 27,-126.71 27,-118.11"/>
<polygon fill="grey" stroke="grey" stroke-width="2" points="30.5,-118.1 27,-108.1 23.5,-118.1 30.5,-118.1"/>
</g>
<!-- 3 -->
<g id="node4" class="node">
<title>3</title>
<path fill="none" stroke="#56a2d8" stroke-width="2" d="M117,-180C117,-180 87,-180 87,-180 81,-180 75,-174 75,-168 75,-168 75,-156 75,-156 75,-150 81,-144 87,-144 87,-144 117,-144 117,-144 123,-144 129,-150 129,-156 129,-156 129,-168 129,-168 129,-174 123,-180 117,-180"/>
<text text-anchor="middle" x="102" y="-159.5" font-family="sans" font-size="10.00">trinity</text>
</g>
<!-- 3&#45;&gt;1 -->
<g id="edge4" class="edge">
<title>3&#45;&gt;1</title>
<path fill="none" stroke="grey" stroke-width="2" d="M83.46,-143.7C74.2,-135.05 62.84,-124.45 52.74,-115.03"/>
<polygon fill="grey" stroke="grey" stroke-width="2" points="55.02,-112.37 45.33,-108.1 50.25,-117.49 55.02,-112.37"/>
</g>
<!-- 5 -->
<g id="node6" class="node">
<title>5</title>
<path fill="none" stroke="#56d8c9" stroke-width="2" d="M126,-108C126,-108 84,-108 84,-108 78,-108 72,-102 72,-96 72,-96 72,-84 72,-84 72,-78 78,-72 84,-72 84,-72 126,-72 126,-72 132,-72 138,-78 138,-84 138,-84 138,-96 138,-96 138,-102 132,-108 126,-108"/>
<text text-anchor="middle" x="105" y="-87.5" font-family="sans" font-size="10.00">run_busco</text>
</g>
<!-- 3&#45;&gt;5 -->
<g id="edge6" class="edge">
<title>3&#45;&gt;5</title>
<path fill="none" stroke="grey" stroke-width="2" d="M102.74,-143.7C103.07,-135.98 103.47,-126.71 103.84,-118.11"/>
<polygon fill="grey" stroke="grey" stroke-width="2" points="107.34,-118.25 104.27,-108.1 100.34,-117.95 107.34,-118.25"/>
</g>
<!-- 4 -->
<g id="node5" class="node">
<title>4</title>
<path fill="none" stroke="#d85656" stroke-width="2" d="M126.5,-252C126.5,-252 77.5,-252 77.5,-252 71.5,-252 65.5,-246 65.5,-240 65.5,-240 65.5,-228 65.5,-228 65.5,-222 71.5,-216 77.5,-216 77.5,-216 126.5,-216 126.5,-216 132.5,-216 138.5,-222 138.5,-228 138.5,-228 138.5,-240 138.5,-240 138.5,-246 132.5,-252 126.5,-252"/>
<text text-anchor="middle" x="102" y="-231.5" font-family="sans" font-size="10.00">prep_trinity</text>
</g>
<!-- 4&#45;&gt;3 -->
<g id="edge5" class="edge">
<title>4&#45;&gt;3</title>
<path fill="none" stroke="grey" stroke-width="2" d="M102,-215.7C102,-207.98 102,-198.71 102,-190.11"/>
<polygon fill="grey" stroke="grey" stroke-width="2" points="105.5,-190.1 102,-180.1 98.5,-190.1 105.5,-190.1"/>
</g>
<!-- 5&#45;&gt;0 -->
<g id="edge1" class="edge">
<title>5&#45;&gt;0</title>
<path fill="none" stroke="grey" stroke-width="2" d="M95.36,-71.7C90.87,-63.64 85.44,-53.89 80.48,-44.98"/>
<polygon fill="grey" stroke="grey" stroke-width="2" points="83.45,-43.14 75.53,-36.1 77.34,-46.54 83.45,-43.14"/>
</g>
</g>
</svg>
